<?xml version="1.0" encoding="utf-8"?>
<!-- Generator: Adobe Illustrator 18.0.0, SVG Export Plug-In . SVG Version: 6.00 Build 0)  -->
<!DOCTYPE svg PUBLIC "-//W3C//DTD SVG 1.1//EN" "http://www.w3.org/Graphics/SVG/1.1/DTD/svg11.dtd">
<svg version="1.1" id="lo_x5F_fi_black" xmlns="http://www.w3.org/2000/svg" xmlns:xlink="http://www.w3.org/1999/xlink" x="0px"
	 y="0px" viewBox="0 0 880 1250" style="enable-background:new 0 0 880 1250;" xml:space="preserve" preserveAspectRatio="none">
<style type="text/css">
	.st0{fill:#FFFFFF;}
</style>
<g>
	<path d="M828,0H52C23.3,0,0,23.3,0,52v1151c0,28.7,23.3,47,52,47h776c28.7,0,52-18.3,52-47V52C880,23.3,856.7,0,828,0z M824,1137
		H56V113h768V1137z"/>
</g>
<g>
	<path class="st0" d="M440,1171c14.9,0,27,12.1,27,27s-12.1,27-27,27s-27-12.1-27-27S425.1,1171,440,1171 M440,1170
		c-15.5,0-28,12.5-28,28s12.5,28,28,28s28-12.5,28-28S455.5,1170,440,1170L440,1170z"/>
</g>
<g>
	<path class="st0" d="M440,1171c14.9,0,27,12.1,27,27s-12.1,27-27,27s-27-12.1-27-27S425.1,1171,440,1171 M440,1170
		c-15.5,0-28,12.5-28,28s12.5,28,28,28s28-12.5,28-28S455.5,1170,440,1170L440,1170z"/>
</g>
<g>
	<path class="st0" d="M440,1177c11.6,0,21,9.4,21,21s-9.4,21-21,21s-21-9.4-21-21S428.4,1177,440,1177 M440,1176
		c-12.2,0-22,9.8-22,22s9.8,22,22,22s22-9.8,22-22S452.2,1176,440,1176L440,1176z"/>
</g>
<g>
	<path class="st0" d="M440,1177c11.6,0,21,9.4,21,21s-9.4,21-21,21s-21-9.4-21-21S428.4,1177,440,1177 M440,1176
		c-12.2,0-22,9.8-22,22s9.8,22,22,22s22-9.8,22-22S452.2,1176,440,1176L440,1176z"/>
</g>
<g>
	<path class="st0" d="M440,52c3.9,0,7,3.1,7,7s-3.1,7-7,7s-7-3.1-7-7S436.1,52,440,52 M440,51c-4.4,0-8,3.6-8,8s3.6,8,8,8s8-3.6,8-8
		S444.4,51,440,51L440,51z"/>
</g>
<g>
	<path class="st0" d="M418,56c1.7,0,3,1.3,3,3s-1.3,3-3,3s-3-1.3-3-3S416.3,56,418,56 M418,55c-2.2,0-4,1.8-4,4s1.8,4,4,4s4-1.8,4-4
		S420.2,55,418,55L418,55z"/>
</g>
</svg>
